<?xml version="1.0" encoding="utf-8"?>
<!-- Generator: Adobe Illustrator 16.0.0, SVG Export Plug-In . SVG Version: 6.00 Build 0)  -->
<!DOCTYPE svg PUBLIC "-//W3C//DTD SVG 1.1//EN" "http://www.w3.org/Graphics/SVG/1.1/DTD/svg11.dtd">
<svg version="1.1" id="Layer_1" xmlns:sketch="http://www.bohemiancoding.com/sketch/ns"
	 xmlns="http://www.w3.org/2000/svg" xmlns:xlink="http://www.w3.org/1999/xlink" x="0px" y="0px" width="800px" height="800px"
	 viewBox="0 0 800 800" enable-background="new 0 0 800 800" xml:space="preserve">
<title>image-picture</title>
<desc>Created with Sketch Beta.</desc>
<g id="Page-1" sketch:type="MSPage">
	<g id="Icon-Set" transform="translate(-360.000000, -99.000000)" sketch:type="MSLayerGroup">
		<path id="image-picture" sketch:type="MSShapeGroup" fill="#564AED" d="M600.553,379.417c-22.005,0-39.867-17.864-39.867-39.864
			c0-22.005,17.864-39.867,39.867-39.867c21.999,0,39.864,17.864,39.864,39.867C640.417,361.553,622.553,379.417,600.553,379.417
			L600.553,379.417z M600.553,259.826c-44.032,0-79.727,35.694-79.727,79.727c0,44.03,35.694,79.729,79.727,79.729
			c44.03,0,79.729-35.7,79.729-79.729C680.282,295.521,644.583,259.826,600.553,259.826L600.553,259.826z M1039.032,521.5
			L919.434,399.341L721.311,600.85l-80.893-81.935L480.964,665.178V259.826c0-21.999,17.863-39.862,39.862-39.862h478.339
			c22.004,0,39.866,17.863,39.866,39.862L1039.032,521.5L1039.032,521.5z M1039.032,738.165c0,22.006-17.861,39.866-39.866,39.866
			H896.154L749.311,629.237l170.123-170.121l119.599,119.573V738.165L1039.032,738.165z M520.826,778.032
			c-21.999,0-39.862-17.861-39.862-39.866v-18.701l158.356-141.846l200.418,200.413H520.826L520.826,778.032z M999.165,180.101
			H520.826c-44.029,0-79.726,35.697-79.726,79.726v478.339c0,44.028,35.697,79.73,79.726,79.73h478.339
			c44.028,0,79.73-35.702,79.73-79.73V259.826C1078.896,215.798,1043.197,180.101,999.165,180.101L999.165,180.101z"/>
	</g>
</g>
</svg>
