<?xml version="1.0" encoding="utf-8"?>
<!-- Generator: Adobe Illustrator 16.0.0, SVG Export Plug-In . SVG Version: 6.00 Build 0)  -->
<!DOCTYPE svg PUBLIC "-//W3C//DTD SVG 1.1//EN" "http://www.w3.org/Graphics/SVG/1.1/DTD/svg11.dtd">
<svg version="1.1" id="Layer_1" xmlns="http://www.w3.org/2000/svg" xmlns:xlink="http://www.w3.org/1999/xlink" x="0px" y="0px"
	 width="800px" height="800px" viewBox="0 0 800 800" enable-background="new 0 0 800 800" xml:space="preserve">
<path fill="#D37FD6" d="M165.5,75C117.175,75,78,114.175,78,162.5v425c0,48.325,39.175,87.5,87.5,87.5h221.145
	c-8.326-13.007-15.301-26.962-20.728-41.667H165.5c-25.313,0-45.833-20.52-45.833-45.833v-425c0-25.313,20.521-45.833,45.833-45.833
	h425c25.313,0,45.833,20.521,45.833,45.833v189.752c14.636,4.76,28.585,11.035,41.667,18.642V162.5c0-48.325-39.175-87.5-87.5-87.5
	H165.5z"/>
<path fill="#D37FD6" d="M386.691,441.594c-8.333,13.005-15.315,26.96-20.748,41.666H165.5c-11.507,0-20.833-9.326-20.833-20.833
	c0-11.505,9.327-20.833,20.833-20.833H386.691z"/>
<path fill="#D37FD6" d="M527.96,162.468c0-11.505-9.328-20.833-20.833-20.833c-11.507,0-20.834,9.328-20.834,20.833v45.865H440.5
	c-11.507,0-20.833,9.327-20.833,20.833c0,11.507,9.326,20.833,20.833,20.833h45.793v45.805c0,11.505,9.327,20.834,20.834,20.834
	c11.505,0,20.833-9.329,20.833-20.834V250h45.875c11.507,0,20.833-9.327,20.833-20.833c0-11.506-9.326-20.833-20.833-20.833H527.96
	V162.468z"/>
<path fill="#D37FD6" d="M322.222,154.52c-3.22-7.797-10.823-12.881-19.26-12.88c-8.435,0.001-16.037,5.089-19.255,12.887
	l-79.131,191.766c-4.39,10.636,0.675,22.815,11.31,27.205c10.637,4.389,22.817-0.675,27.205-11.312l11.784-28.552h96.242
	l11.795,28.559c4.392,10.633,16.573,15.695,27.208,11.302c10.635-4.392,15.695-16.573,11.304-27.208L322.222,154.52z
	 M333.907,291.969h-61.84l30.907-74.899L333.907,291.969z"/>
<path fill="#D37FD6" d="M144.667,562.5c0-11.507,9.327-20.833,20.833-20.833h133.468c11.505,0,20.833,9.326,20.833,20.833
	s-9.329,20.833-20.833,20.833H165.5C153.993,583.333,144.667,574.007,144.667,562.5z"/>
<path fill="#D37FD6" d="M752.585,558.333c0,101.252-82.082,183.334-183.333,183.334c-101.252,0-183.334-82.082-183.334-183.334
	C385.918,457.082,468,375,569.252,375C670.503,375,752.585,457.082,752.585,558.333z M585.918,441.667
	c0-9.205-7.461-16.667-16.666-16.667s-16.667,7.462-16.667,16.667v100h-100c-9.205,0-16.667,7.461-16.667,16.666
	S443.38,575,452.585,575h100v100c0,9.205,7.462,16.667,16.667,16.667s16.666-7.462,16.666-16.667V575h100
	c9.205,0,16.667-7.462,16.667-16.667s-7.462-16.666-16.667-16.666h-100V441.667z"/>
</svg>
