<?xml version="1.0" encoding="utf-8"?>
<!-- Generator: Adobe Illustrator 16.0.0, SVG Export Plug-In . SVG Version: 6.00 Build 0)  -->
<!DOCTYPE svg PUBLIC "-//W3C//DTD SVG 1.1//EN" "http://www.w3.org/Graphics/SVG/1.1/DTD/svg11.dtd">
<svg version="1.1" id="Layer_1" xmlns="http://www.w3.org/2000/svg" xmlns:xlink="http://www.w3.org/1999/xlink" x="0px" y="0px"
	 width="800px" height="800px" viewBox="0 0 800 800" enable-background="new 0 0 800 800" xml:space="preserve">
<path fill="#EF7BD1" d="M775.533,319.302c0.03-20.761-11.084-39.934-29.106-50.229L430.044,81.306
	c-18.576-10.832-41.529-10.832-60.088,0L53.097,269.073c-27.871,16.535-37.058,52.536-20.521,80.409
	c5.014,8.444,12.069,15.504,20.521,20.516l90.127,52.57v131.919c0.111,20.964,11.142,40.355,29.104,51.162l199.501,115.005
	c18.107,10.029,40.108,10.029,58.215,0l199.502-115.005c17.957-10.807,28.994-30.198,29.099-51.162V421.168l58.208-34.272v127.687
	h58.681V319.302z M600.435,554.01L400,669.485L201.902,554.486v-97.179l168.053,99.993c18.615,10.639,41.473,10.639,60.088,0
	l169.925-101.392L600.435,554.01z M400,506.604L83.139,318.833L400,130.594l316.853,187.767L400,506.604z"/>
</svg>
